PathFileType	4	(X/Y/Z)	Walk7.trc
DataRate	CameraRate	NumFrames	NumMarkers	Units	OrigDataRate	OrigDataStartFrame	OrigNumFrames
200.000000	200.000000	4	59	mm	200.000000	330	590
Frame#	Times		LFHD		RFHD		CLAV		STRN		LASI		RASI		RACR1		RUA1		RElbow		RFA1		RWRR		RWRU		RCAR		LACR1		LUA1		LElbow		LFA1		LWRR		LCAR		RTH3		RTH2		RTB1		RTB2		RTB4		LTH1		LTH3		LTH2		LTH4		LLFC		LTB1		LTB2		LTB4		LMT1		LToe		LWRU		LMT5		LTB3		RTB3		LMFC		RMT1		RMMAL		RElbowM		RLFC		RToe		RBHD		RTH4		RTH1		RCAL		RBack		RMFC		RPSI		LLMAL		C7		LPSI		T10		LMMAL		LBHD		LCAL		LElbowM
			X1	Y1	Z1	X2	Y2	Z2	X3	Y3	Z3	X4	Y4	Z4	X5	Y5	Z5	X6	Y6	Z6	X7	Y7	Z7	X8	Y8	Z8	X9	Y9	Z9	X10	Y10	Z10	X11	Y11	Z11	X12	Y12	Z12	X13	Y13	Z13	X14	Y14	Z14	X15	Y15	Z15	X16	Y16	Z16	X17	Y17	Z17	X18	Y18	Z18	X19	Y19	Z19	X20	Y20	Z20	X21	Y21	Z21	X22	Y22	Z22	X23	Y23	Z23	X24	Y24	Z24	X25	Y25	Z25	X26	Y26	Z26	X27	Y27	Z27	X28	Y28	Z28	X29	Y29	Z29	X30	Y30	Z30	X31	Y31	Z31	X32	Y32	Z32	X33	Y33	Z33	X34	Y34	Z34	X35	Y35	Z35	X36	Y36	Z36	X37	Y37	Z37	X38	Y38	Z38	X39	Y39	Z39	X40	Y40	Z40	X41	Y41	Z41	X42	Y42	Z42	X43	Y43	Z43	X44	Y44	Z44	X45	Y45	Z45	X46	Y46	Z46	X47	Y47	Z47	X48	Y48	Z48	X49	Y49	Z49	X50	Y50	Z50	X51	Y51	Z51	X52	Y52	Z52	X53	Y53	Z53	X54	Y54	Z54	X55	Y55	Z55	X56	Y56	Z56	X57	Y57	Z57	X58	Y58	Z58	X59	Y59	Z59

330	1.65	15.525	1666.2	17.058	21.73	1659.6	-81.605	19.576	1409.3	-14.448	92.075	1253.4	-11.651	-35.034	990.66	-189.76	-3.7519	993.91	169.66	-103.73	1495.5	148.57	-148.15	1336.8	271.01	-155.53	1190.6	328.05	-135.94	1038.9	352.64	-116.87	915.91	291.2	-130.83	925.35	371.25	-101.1	837.27	345.72	-91.959	1465.1	-202.51	-83.767	1290.3	-292.52	-34.4	1136.2	-348.1	48.215	1023.8	-354.19	145.85	940.96	-288.3	201.61	875.4	-319.95	45.927	642.46	208.09	53.058	747.48	202.48	150.94	424.32	140.34	125.54	336.16	191.96	152.23	337.86	136.66	-113.64	755.21	-202.21	-114.38	586.7	-171.12	-56.128	674.05	-173.19	-115.03	671.64	-186.29	-138.75	502.33	-163.25	-94.052	369.43	-94.736	-150.18	287.41	-127.08	-119.69	291.84	-72.846	-129.03	36.455	-39.264	-75.538	24.237	-80.585	118.54	904.72	-347.26	-198.47	26.017	-114.08	-154.36	213.74	-52.789	153.95	251.98	132.55	-115.42	497.62	-7.2046	264.53	77.21	121.83	135.67	111.93	76.548	-206.79	1118.6	231.82	69.077	535.09	201.69	296.18	92.8	162.52	-127.27	1580.6	-97.398	4.413	717.48	218.01	-39.538	792.42	223.3	46.318	58.992	102.57	-244.77	1372.5	90.747	78.656	529.46	46.266	-275.43	1026.9	38.737	-282.65	83.629	-47.336	-175.33	1484.5	-25.259	-273.95	1040.5	-45.639	-235.74	1168.7	-5.8829	-252.29	90.345	37.904	-121.72	1595.4	49.339	-335.95	63.813	12.249	-82.693	1056.3	-261.64
331	1.655	21.85	1665.4	17.57	28.008	1658.8	-81.1	25.91	1408.4	-14.24	98.379	1252.5	-11.737	-30.144	989.82	-190.12	3.023	992.59	169.81	-97.061	1494.7	149.03	-142.29	1336.3	271.45	-150.37	1190	328.47	-131.7	1038.1	353	-113.56	914.94	291.55	-127.43	924.49	371.6	-98.526	836.06	346.03	-85.979	1464.2	-202.05	-76.846	1289.6	-292.06	-26.43	1135.9	-347.78	56.924	1024	-353.81	154.98	941.86	-287.8	211.3	876.77	-319.37	51.858	640.97	207.79	59.17	745.99	202.07	160.52	425.16	139.83	137.79	336.4	191.61	164.39	338.75	136.28	-109.47	754.67	-202.1	-110.98	586.15	-171.14	-52.296	673.2	-173.28	-111.26	671.11	-186.21	-135.78	501.83	-163.21	-91.748	368.54	-94.8	-148.56	286.91	-127.05	-117.91	291.13	-72.868	-128.95	36.419	-39.306	-75.487	24.214	-80.693	128.07	905.49	-346.86	-198.51	26.044	-113.92	-153.08	213.31	-52.738	168.69	252.95	132.34	-111.88	496.84	-7.3069	284.44	81.437	121.58	154.54	112.35	76.569	-201.81	1118.3	232.1	75.955	533.72	201.12	315.7	97.868	162.21	-120.99	1579.8	-96.89	10.587	716.1	218.01	-33.181	791.12	223.42	66.809	56.9	102.75	-238.31	1371.7	91.5	84.842	527.73	45.588	-269.1	1026.2	39.92	-282.29	84.02	-47.107	-169.06	1483.7	-24.646	-268.03	1039.8	-44.341	-229.49	1167.9	-4.7972	-251.77	90.575	38.105	-115.4	1594.6	49.88	-335.63	64.41	12.549	-74.515	1055.6	-261.59
332	1.66	28.189	1664.5	18.111	34.303	1658	-80.566	32.276	1407.5	-14.007	104.72	1251.6	-11.8	-25.271	988.92	-190.52	9.7818	991.2	170.01	-90.358	1493.9	149.52	-136.38	1335.7	271.91	-145.16	1189.4	328.9	-127.41	1037.3	353.36	-110.18	913.95	291.91	-123.96	923.62	371.95	-95.874	834.84	346.33	-79.969	1463.3	-201.57	-69.918	1288.8	-291.57	-18.519	1135.6	-347.42	65.55	1024.2	-353.4	164.01	942.69	-287.26	220.87	878.09	-318.79	57.692	639.36	207.5	65.223	744.35	201.65	169.93	425.97	139.29	149.88	336.7	191.24	176.34	339.7	135.86	-105.27	754.11	-201.97	-107.55	585.59	-171.15	-48.448	672.33	-173.37	-107.46	670.57	-186.12	-132.81	501.31	-163.16	-89.438	367.63	-94.857	-146.95	286.41	-127.02	-116.12	290.42	-72.887	-128.88	36.383	-39.343	-75.439	24.191	-80.799	137.5	906.2	-346.42	-198.55	26.072	-113.76	-151.78	212.88	-52.691	183.16	254.05	132.08	-108.34	496.04	-7.3978	303.94	85.904	121.18	173.07	113.01	76.554	-196.76	1118	232.37	82.779	532.29	200.56	334.82	103.16	161.71	-114.7	1579	-96.354	16.681	714.61	217.97	-26.868	789.72	223.52	87.048	55.111	102.94	-231.83	1370.9	92.27	90.895	525.91	44.916	-262.73	1025.4	41.123	-281.94	84.42	-46.879	-162.76	1482.8	-24	-262.07	1039.2	-43.027	-223.21	1167.1	-3.6975	-251.27	90.805	38.308	-109.05	1593.7	50.456	-335.31	65.018	12.851	-66.383	1054.8	-261.48
333	1.665	34.542	1663.5	18.682	40.615	1657.1	-80.002	38.674	1406.6	-13.746	111.1	1250.7	-11.838	-20.408	987.97	-190.96	16.528	989.75	170.26	-83.621	1493.1	150.03	-130.43	1335.1	272.39	-139.92	1188.7	329.34	-123.05	1036.5	353.74	-106.71	912.97	292.26	-120.43	922.74	372.3	-93.144	833.63	346.62	-73.928	1462.4	-201.05	-62.987	1288.1	-291.04	-10.668	1135.2	-347.01	74.09	1024.4	-352.95	172.94	943.45	-286.71	230.32	879.33	-318.19	63.449	637.62	207.23	71.23	742.6	201.23	179.18	426.76	138.71	161.82	337.06	190.84	188.06	340.69	135.4	-101.05	753.54	-201.82	-104.11	585.02	-171.15	-44.583	671.44	-173.44	-103.64	670.01	-186.03	-129.83	500.78	-163.1	-87.124	366.73	-94.908	-145.32	285.91	-126.98	-114.34	289.71	-72.9	-128.81	36.349	-39.377	-75.395	24.168	-80.903	146.8	906.85	-345.95	-198.59	26.1	-113.6	-150.48	212.43	-52.648	197.37	255.26	131.78	-104.81	495.23	-7.4716	322.99	90.576	120.62	191.25	113.9	76.5	-191.63	1117.7	232.65	89.558	530.81	200	353.5	108.64	161.03	-108.38	1578.2	-95.787	22.71	713.02	217.91	-20.589	788.23	223.58	106.99	53.609	103.15	-225.31	1370.1	93.058	96.821	524.02	44.252	-256.33	1024.7	42.345	-281.59	84.832	-46.654	-156.42	1482	-23.323	-256.07	1038.5	-41.699	-216.9	1166.3	-2.586	-250.76	91.037	38.511	-102.69	1592.8	51.068	-334.99	65.635	13.153	-58.298	1054.1	-261.3
